; Drill file
; Format: 2.4 (00.0000)
M48
INCH
T01C0.0236
T02C0.0315
T03C0.1181
%
G05
G90
T01
X003500Y001500
X004500Y001500
X019500Y008500
X020500Y008500
X020500Y018250
X019500Y018250
T02
X002000Y003500
X002000Y004500
X002000Y005500
X002000Y006500
X002000Y007500
X002000Y008500
X002000Y009500
X002000Y010500
X002000Y011500
X002000Y012500
X002000Y013500
X002000Y014500
X002000Y015500
X002000Y016500
X002000Y017500
X008000Y017500
X008000Y016500
X008000Y015500
X008000Y014500
X008000Y013500
X008000Y012500
X008000Y011500
X008000Y010500
X008000Y009500
X008000Y008500
X008000Y007500
X008000Y006500
X008000Y005500
X008000Y004500
X008000Y003500
X009500Y003250
X009500Y002250
X009500Y001250
X007000Y001500
X006000Y001500
X013000Y001500
X013000Y002500
X013000Y003500
X013000Y004500
X013000Y005500
X013000Y006500
X013000Y007500
X013000Y008500
X015250Y007500
X015250Y006500
X015250Y005500
X016250Y005500
X016250Y006500
X016250Y007500
X018000Y007500
X018000Y006500
X018000Y005500
X018000Y004500
X018000Y003500
X018000Y002500
X018000Y001500
X020500Y003500
X020500Y004500
X020500Y005500
X020500Y006500
X018000Y008500
X018000Y011250
X018000Y012250
X018000Y013250
X018000Y014250
X018000Y015250
X018000Y016250
X018000Y017250
X018000Y018250
X016250Y018250
X016250Y017250
X015250Y017250
X015250Y016250
X016250Y016250
X015250Y018250
X013000Y018250
X013000Y017250
X013000Y016250
X013000Y015250
X013000Y014250
X013000Y013250
X013000Y012250
X013000Y011250
X020500Y013250
X020500Y014250
X020500Y015250
X020500Y016250
X022200Y015350
X022200Y014980
X022200Y014600
X024580Y014600
X024580Y014980
X024580Y015350
X023570Y016980
X023200Y016980
X022830Y016980
T03
X001000Y001000
X001000Y018750
X026500Y018750
X026500Y001000
M30
